<svg width="40" height="40" viewBox="0 0 40 40" fill="none" xmlns="http://www.w3.org/2000/svg">
  <rect width="40" height="40" rx="8" fill="#8CC152" />
  <path d="M12 9H22C24 9 25.5 9.5 26.5 10.5C27.5 11.5 28 12.75 28 14.25C28 15.75 27.5 17 26.5 17.75C25.5 18.5 24.5 18.75 23.5 18.75V19C24.5 19 26 19.5 27 20.5C28 21.5 28.5 22.75 28.5 24.25C28.5 26.25 27.75 27.75 26.25 28.75C24.75 29.75 22.75 30 20.25 30H12V9ZM16 17.5H19.5C20.5 17.5 21.25 17.25 21.75 16.75C22.25 16.25 22.5 15.5 22.5 14.5C22.5 13.5 22.25 12.75 21.75 12.25C21.25 11.75 20.5 11.5 19.5 11.5H16V17.5ZM16 27.5H20C21.25 27.5 22.25 27.25 23 26.75C23.75 26.25 24 25.5 24 24.5C24 23.5 23.75 22.75 23 22.25C22.25 21.75 21.25 21.5 20 21.5H16V27.5Z" fill="white"/>
</svg> 